<?xml version="1.0" standalone="no"?>
<!DOCTYPE svg PUBLIC "-//W3C//DTD SVG 20010904//EN"
 "http://www.w3.org/TR/2001/REC-SVG-20010904/DTD/svg10.dtd">
<svg version="1.0" xmlns="http://www.w3.org/2000/svg"
 width="500.000000pt" height="500.000000pt" viewBox="0 0 500.000000 500.000000"
 preserveAspectRatio="xMidYMid meet">

<g transform="translate(0.000000,500.000000) scale(0.100000,-0.100000)"
fill="#000000" stroke="none">
<path d="M0 2500 l0 -2500 2500 0 2500 0 0 2500 0 2500 -2500 0 -2500 0 0
-2500z m2831 1276 c6 -30 10 -94 7 -147 -5 -116 -32 -182 -106 -256 -74 -74
-129 -98 -227 -97 -92 0 -141 13 -206 56 -112 75 -161 236 -130 428 6 40 8 35
13 -50 10 -160 61 -256 168 -314 70 -38 164 -46 241 -21 155 52 261 276 212
449 -3 11 -1 16 5 12 6 -3 16 -30 23 -60z m-691 -26 c-14 -72 -11 -221 5 -285
18 -70 70 -150 119 -183 191 -129 497 -61 591 132 31 64 43 172 27 256 -6 30
-9 57 -7 59 2 2 14 -29 26 -69 30 -101 25 -227 -14 -292 -54 -92 -161 -157
-308 -186 -70 -13 -92 -14 -158 -3 -158 27 -282 105 -331 207 -30 66 -37 165
-15 240 16 58 65 177 71 172 1 -2 -2 -23 -6 -48z m346 -160 c-3 -33 -9 -87
-12 -120 -7 -64 -9 -66 -64 -50 -62 18 -63 21 -40 81 12 30 33 69 46 87 14 17
21 32 16 32 -15 0 -87 -83 -103 -118 -7 -18 -16 -32 -20 -32 -8 0 -54 51 -73
82 l-17 26 58 22 c46 18 157 44 207 49 5 1 6 -26 2 -59z m99 49 c58 -11 155
-52 155 -67 0 -4 -10 -23 -21 -42 l-22 -35 -16 25 c-26 39 -82 100 -94 100 -5
0 -3 -8 6 -18 24 -26 69 -130 62 -142 -8 -13 -52 -35 -86 -43 -29 -7 -25 -26
-46 176 -3 31 -4 57 -1 57 2 0 31 -5 63 -11z m511 -334 c19 -38 37 -86 40
-106 6 -36 5 -37 -40 -54 -26 -10 -48 -16 -50 -14 -2 2 -23 42 -46 88 -41 82
-41 85 -27 120 9 20 18 49 22 65 l6 29 30 -29 c17 -16 46 -60 65 -99z m-1083
-23 c15 -31 14 -34 -15 -94 -16 -35 -32 -65 -34 -68 -8 -8 -144 44 -144 56 0
30 78 163 119 203 l46 44 6 -55 c3 -30 13 -69 22 -86z m886 -92 c37 -86 40
-79 -61 -131 -108 -55 -220 -81 -348 -82 -103 0 -124 3 -207 31 -89 30 -213
87 -213 97 0 3 14 39 31 79 l31 74 40 -44 40 -43 -16 -48 -15 -48 34 39 34 38
47 -18 46 -18 -5 -43 c-2 -24 -1 -43 2 -43 4 0 18 18 30 41 19 33 27 40 45 35
11 -3 30 -6 42 -6 17 0 23 -9 31 -47 l10 -48 8 43 c9 48 9 48 77 57 46 6 47 6
68 -32 l21 -38 -6 45 -6 46 47 23 47 22 39 -43 c22 -24 37 -36 34 -27 -32 106
-32 97 4 134 19 19 35 34 36 32 1 -1 16 -36 33 -77z m-1034 -138 c-3 -15 -8
-36 -11 -47 -4 -14 4 -10 26 15 l32 35 -7 -45 -6 -45 25 30 25 30 -6 -40 -6
-40 22 27 c33 41 50 28 38 -27 -6 -25 -14 -45 -19 -45 -13 0 -188 89 -188 96
0 3 14 30 32 60 26 42 34 50 41 38 5 -8 6 -27 2 -42z m1308 6 c15 -20 27 -39
27 -42 0 -5 -174 -96 -184 -96 -2 0 -7 12 -10 28 -4 15 -9 34 -12 43 -8 30 25
30 40 1 l15 -27 1 33 c0 35 15 41 37 15 12 -16 13 -15 8 15 -8 38 0 40 33 10
23 -21 25 -22 18 -3 -4 11 -10 34 -13 50 -6 33 -2 30 40 -27z m-1093 -1 c0 -7
-18 -148 -40 -312 -22 -164 -40 -300 -40 -301 0 -8 -92 -56 -97 -51 -5 6 105
526 133 625 9 32 20 52 29 52 8 0 15 -6 15 -13z m950 -321 c39 -174 70 -319
70 -321 0 -3 -21 3 -47 13 l-48 18 -41 304 c-27 208 -37 307 -30 312 6 4 14 4
18 0 5 -5 40 -151 78 -326z m-906 262 c9 -59 54 -138 95 -165 39 -27 87 -29
137 -8 42 17 50 14 56 -20 4 -17 1 -25 -9 -25 -7 0 -18 -11 -25 -24 -9 -22 -5
-33 32 -91 23 -37 36 -65 28 -62 -7 3 -38 14 -68 23 l-55 17 30 13 30 13 -38
1 c-92 1 -133 -146 -61 -222 34 -35 70 -36 155 -7 l60 21 78 -22 78 -23 41 23
c46 26 62 59 62 127 0 36 -6 50 -29 74 -29 29 -64 38 -76 20 -3 -5 3 -11 12
-13 10 -2 -11 -13 -47 -25 -36 -12 -66 -20 -67 -19 -1 1 16 30 37 64 46 72 49
95 18 116 -17 12 -20 18 -10 28 9 9 19 9 45 0 72 -26 136 -8 180 50 26 34 57
115 57 148 0 24 20 37 31 19 5 -8 9 -63 9 -123 0 -105 -1 -112 -33 -170 -19
-34 -37 -74 -41 -90 -6 -26 -8 -27 -25 -12 -25 23 -34 20 -20 -6 l12 -23 -24
21 c-43 38 -52 39 -35 6 32 -63 8 -178 -45 -216 -32 -22 -87 -20 -141 4 l-45
20 -82 -26 c-75 -25 -84 -25 -119 -13 -53 20 -84 83 -80 161 3 63 -4 63 -26 3
-8 -22 -15 -32 -15 -22 -1 10 6 34 14 54 19 45 19 46 -5 38 -13 -4 -20 -2 -20
7 0 8 -14 32 -30 55 -51 69 -60 110 -53 234 6 114 16 138 27 67z m-320 -118
l-5 -45 19 24 c24 30 45 20 36 -17 -7 -27 -7 -27 14 -9 24 22 38 8 33 -33 l-2
-25 16 22 c9 13 22 20 30 17 16 -7 20 -40 6 -48 -5 -4 -51 10 -103 29 -51 20
-99 38 -106 40 -9 3 -7 15 9 47 12 24 26 49 32 56 17 22 28 -7 21 -58z m916
45 c17 -20 5 -62 -20 -70 -10 -3 -29 -1 -40 5 -30 16 -24 62 10 71 37 10 37
10 50 -6z m517 -72 c-34 -17 -176 -73 -187 -73 -13 0 -13 37 0 45 6 4 17 1 25
-5 12 -10 15 -9 15 8 0 23 22 42 28 24 7 -22 22 -13 22 13 0 29 15 32 43 8 20
-17 20 -17 14 0 -4 11 -10 31 -13 45 -6 26 -5 25 35 -13 l41 -39 -23 -13z
m-879 46 c4 -33 -20 -53 -53 -45 -25 6 -43 45 -30 66 4 6 23 10 43 8 31 -3 37
-7 40 -29z m112 -77 c0 -16 3 -65 6 -108 l5 -79 -45 50 c-25 28 -46 53 -46 58
0 16 39 5 53 -15 15 -22 16 -19 10 50 -4 51 -3 72 6 72 6 0 11 -13 11 -28z
m90 21 c-1 -5 -7 -35 -15 -68 -14 -57 -14 -89 0 -46 4 14 15 21 31 21 13 0 24
-3 24 -7 -1 -5 -24 -33 -52 -63 -29 -32 -48 -47 -45 -35 3 11 9 58 13 105 7
94 9 100 30 100 8 0 14 -3 14 -7z m720 -103 c22 -44 27 -62 18 -65 -53 -16
-195 -55 -204 -55 -17 0 -27 51 -14 64 8 8 15 6 26 -8 14 -19 14 -19 14 2 0
15 6 22 20 22 11 0 20 -4 20 -10 0 -22 19 -8 22 17 4 37 20 38 42 2 10 -17 19
-29 21 -27 2 2 0 23 -5 47 -7 40 -5 71 6 71 2 0 17 -27 34 -60z m-1525 -19
l-6 -46 22 28 c21 27 22 28 35 8 8 -11 11 -26 8 -35 -7 -18 7 -21 23 -5 15 15
33 3 33 -24 0 -16 3 -18 12 -9 7 7 19 12 29 12 12 0 15 -6 11 -25 -2 -14 -6
-25 -9 -25 -5 0 -227 63 -231 65 -1 1 9 30 24 64 22 50 29 59 41 50 10 -9 12
-25 8 -58z m960 -149 c-2 -2 -27 1 -54 8 -51 12 -57 25 -17 40 16 6 27 2 48
-18 15 -14 26 -28 23 -30z m-355 38 c21 -13 6 -23 -51 -36 l-50 -11 27 28 c29
30 49 35 74 19z m980 -119 c0 -6 -186 -71 -203 -71 -6 0 -27 66 -27 88 0 25
22 11 38 -25 l16 -38 6 45 c6 51 15 56 35 20 14 -25 14 -25 15 12 0 48 15 56
35 18 22 -43 28 -37 23 20 -3 27 -3 52 0 55 6 5 62 -109 62 -124z m-1625 110
c3 -5 1 -31 -5 -57 -6 -26 -9 -48 -7 -51 2 -2 15 12 28 32 37 54 53 36 35 -40
l-8 -30 22 33 c32 47 54 43 45 -8 -8 -48 -1 -51 20 -10 13 25 45 43 45 24 0
-25 -25 -94 -34 -94 -7 0 -57 15 -111 34 -68 23 -99 38 -97 47 2 8 13 40 24
72 20 55 31 67 43 48z m715 -37 c0 -21 -27 -17 -33 5 -3 11 -2 22 1 25 8 9 32
-14 32 -30z m160 16 c0 -11 -7 -20 -15 -20 -18 0 -19 12 -3 28 16 16 18 15 18
-8z m-120 -10 c0 -5 -4 -10 -9 -10 -6 0 -13 5 -16 10 -3 6 1 10 9 10 9 0 16
-4 16 -10z m70 0 c0 -5 -4 -10 -10 -10 -5 0 -10 5 -10 10 0 6 5 10 10 10 6 0
10 -4 10 -10z m-140 -107 c8 -7 -24 -23 -46 -23 -11 0 -33 13 -49 30 l-28 29
59 -16 c32 -9 61 -18 64 -20z m30 6 c0 -6 -4 -7 -10 -4 -5 3 -10 11 -10 16 0
6 5 7 10 4 6 -3 10 -11 10 -16z m120 11 c0 -5 -4 -10 -10 -10 -5 0 -10 5 -10
10 0 6 5 10 10 10 6 0 10 -4 10 -10z m30 -6 c0 -8 -5 -12 -10 -9 -6 4 -8 11
-5 16 9 14 15 11 15 -7z m105 -9 c-32 -26 -51 -30 -74 -16 -11 7 -2 13 35 24
68 21 74 20 39 -8z m18 -127 c-17 -30 -155 -137 -177 -138 -7 0 -1 94 9 130 4
11 17 14 53 12 28 -2 62 3 83 11 50 22 53 21 32 -15z m-343 -3 c14 -3 44 -2
68 3 35 8 42 7 46 -7 8 -29 18 -131 13 -131 -14 0 -164 111 -175 130 -12 19
-11 21 5 16 10 -3 29 -8 43 -11z m-280 -704 c0 -79 -22 -128 -68 -151 -24 -11
-32 -22 -32 -42 0 -23 -4 -28 -25 -28 -20 0 -25 5 -25 25 0 17 -9 29 -29 40
-56 28 -71 59 -71 146 0 78 0 79 25 79 24 0 25 -2 25 -70 0 -82 18 -110 73
-110 52 0 68 25 69 107 0 37 2 71 4 74 2 4 15 4 29 1 24 -4 25 -8 25 -71z
m297 -30 l68 -106 3 103 c3 101 3 102 27 102 l25 0 0 -145 0 -145 -32 0 c-31
0 -37 7 -98 103 l-65 102 -3 -102 c-3 -102 -3 -103 -27 -103 l-25 0 0 143 c0
79 2 146 5 149 3 3 17 6 30 6 21 0 37 -19 92 -107z m332 85 c51 -24 65 -58 69
-172 l4 -106 -28 4 c-21 2 -30 9 -32 26 -3 20 -8 22 -73 22 -67 0 -69 -1 -69
-25 0 -21 -5 -25 -30 -25 l-30 0 0 88 c1 115 22 165 82 192 43 19 60 19 107
-4z m-933 -12 c22 -21 25 -31 20 -67 -7 -52 -7 -52 0 -104 5 -36 2 -46 -20
-67 -24 -24 -31 -26 -126 -26 l-100 0 0 145 0 145 100 0 c95 0 102 -2 126 -26z
m1272 -18 c35 -34 37 -40 37 -100 0 -55 -4 -68 -25 -91 -54 -58 -128 -71 -188
-35 -95 58 -95 191 0 251 26 15 45 19 86 16 46 -3 59 -9 90 -41z m122 -1 c0
-25 3 -45 6 -45 3 0 29 20 56 45 43 38 56 45 92 45 40 -1 41 -1 21 -18 -12 -9
-49 -42 -84 -72 l-63 -55 29 -25 c16 -14 53 -46 83 -72 l55 -48 -41 0 c-34 0
-49 7 -89 42 -42 37 -45 43 -29 50 16 7 15 8 -4 4 -14 -3 -26 2 -32 14 -8 15
-6 17 12 12 l22 -5 -22 23 c-12 13 -22 27 -22 32 0 4 -4 8 -10 8 -5 0 -7 -6
-4 -14 3 -7 -2 -16 -10 -19 -14 -5 -16 5 -16 68 0 73 1 75 25 75 23 0 25 -4
25 -45z m273 -17 c-1 -35 -2 -100 -3 -145 0 -82 0 -83 -25 -83 l-25 0 0 145 0
145 28 0 c27 0 27 0 25 -62z m-292 -133 c10 0 15 -15 17 -47 3 -46 2 -48 -22
-48 -25 0 -26 2 -25 68 0 43 3 60 8 47 5 -11 14 -20 22 -20z m-1221 -290 c8
-9 9 -15 2 -15 -6 0 -14 5 -17 10 -3 6 -15 10 -26 10 -30 0 -23 -30 10 -41 34
-12 46 -35 30 -55 -20 -25 -79 -14 -79 14 0 13 3 12 20 -3 19 -17 50 -15 50 4
0 5 -16 18 -35 30 -33 19 -43 39 -28 54 12 13 60 7 73 -8z m158 3 c15 -15 16
-63 2 -89 -14 -26 -55 -24 -74 3 -19 26 -20 37 -6 72 7 20 17 26 38 26 15 0
33 -5 40 -12z m137 -99 c29 -6 29 -7 -7 -8 l-38 -1 2 63 1 62 6 -55 c6 -51 8
-55 36 -61z m120 11 c28 -23 45 -4 45 50 0 27 5 50 10 50 13 0 13 -76 0 -101
-11 -19 -35 -24 -64 -13 -12 5 -16 19 -14 63 2 55 2 55 5 9 2 -25 10 -52 18
-58z m208 93 c-26 -5 -39 -39 -29 -77 3 -14 2 -28 -4 -31 -6 -4 -10 15 -10 49
0 49 -2 55 -22 59 -13 2 2 4 32 4 30 0 45 -2 33 -4z m97 -53 c0 -33 -4 -60
-10 -60 -6 0 -10 27 -10 60 0 33 4 60 10 60 6 0 10 -27 10 -60z m158 48 c16
-16 16 -80 0 -96 -7 -7 -21 -12 -33 -12 -31 0 -45 19 -45 60 0 41 14 60 45 60
12 0 26 -5 33 -12z m132 -28 c14 -22 29 -40 33 -40 5 0 7 18 5 40 -2 22 0 40
4 40 5 0 8 -27 8 -60 0 -33 -3 -60 -7 -60 -5 0 -21 21 -38 48 l-30 47 -6 -50
-6 -50 -1 63 c-1 34 1 62 6 62 4 0 18 -18 32 -40z m208 20 c4 -12 2 -13 -9 -2
-18 17 -49 15 -49 -2 0 -8 12 -21 28 -28 19 -9 27 -21 27 -38 0 -22 -4 -25
-35 -25 -26 0 -36 5 -38 19 -4 19 -3 19 13 2 19 -19 46 -18 53 2 2 7 -12 19
-32 27 -34 14 -47 41 -29 59 12 12 66 2 71 -14z"/>
<path d="M1975 1500 c-3 -6 1 -7 9 -4 18 7 21 14 7 14 -6 0 -13 -4 -16 -10z"/>
<path d="M2418 1465 c5 -29 6 -30 45 -39 22 -5 28 -4 24 6 -2 7 -10 12 -16 10
-7 -1 -6 7 4 22 15 23 15 24 -10 24 -14 0 -25 -5 -25 -10 0 -6 -5 -6 -14 1
-11 9 -12 6 -8 -14z"/>
<path d="M2605 1625 c-16 -15 -25 -36 -25 -54 0 -23 -4 -29 -15 -25 -10 4 -15
0 -15 -11 0 -11 5 -15 16 -11 10 4 13 2 8 -6 -5 -8 -2 -9 10 -5 10 4 44 7 77
7 l59 0 0 44 c0 36 -5 48 -26 65 -35 27 -59 26 -89 -4z"/>
<path d="M2537 1494 c-3 -3 -2 -14 0 -25 6 -20 6 -20 24 0 11 11 19 22 19 23
0 6 -38 7 -43 2z"/>
<path d="M1604 1636 c-3 -8 -4 -23 -2 -33 3 -15 13 -18 67 -18 49 0 66 4 74
17 8 12 7 21 -2 32 -18 22 -129 23 -137 2z"/>
<path d="M1569 1622 c11 -8 11 -10 0 -15 -11 -4 -12 -7 -1 -18 10 -11 12 -10
12 4 0 9 0 20 1 24 0 4 -5 9 -13 11 -10 3 -10 2 1 -6z"/>
<path d="M1607 1524 c-4 -4 -7 -16 -7 -26 0 -11 -4 -17 -8 -14 -9 5 -39 -41
-31 -48 11 -9 69 -14 69 -6 0 6 -7 10 -15 10 -8 0 -15 5 -15 10 0 6 28 10 64
10 46 0 67 4 77 16 24 29 -1 49 -67 52 -33 2 -63 0 -67 -4z"/>
<path d="M2899 1635 c-60 -33 -59 -129 1 -160 35 -18 50 -19 87 -3 15 6 35 10
43 9 11 -1 12 1 3 6 -8 6 -9 14 -3 23 17 27 11 78 -12 105 -28 32 -83 41 -119
20z"/>
<path d="M2026 1204 c-17 -44 6 -93 38 -81 17 7 25 47 15 75 -10 26 -44 29
-53 6z"/>
<path d="M2752 1208 c-16 -16 -15 -50 2 -73 17 -24 43 -14 52 21 11 45 -25 81
-54 52z"/>
</g>
</svg>
